<svg width="122" height="43" viewBox="0 0 122 43" fill="none" xmlns="http://www.w3.org/2000/svg">
<g clip-path="url(#clip0_595_32)">
<path d="M52.44 20V16.392H53.54V6.492H52.44V2.884H65.596V8.582H61.702V6.492H59.7V10.144H63.022V12.652H59.7V16.392H62.582V20H52.44ZM79.5727 16.392V20H73.7647V18.504C73.442 18.9733 72.9874 19.3913 72.4007 19.758C71.8287 20.1247 71.1247 20.308 70.2887 20.308C69.1887 20.308 68.3234 20.0147 67.6927 19.428C67.062 18.8413 66.7467 18.0127 66.7467 16.942C66.7467 14.17 69.1007 12.7473 73.8087 12.674C73.7647 12.1753 73.574 11.838 73.2367 11.662C72.8994 11.4713 72.3274 11.376 71.5207 11.376C70.8607 11.376 70.1494 11.4493 69.3867 11.596C68.6387 11.728 67.9494 11.9113 67.3187 12.146V8.098C68.096 7.90733 68.9394 7.75333 69.8487 7.636C70.758 7.51867 71.6454 7.46 72.5107 7.46C74.696 7.46 76.258 7.856 77.1967 8.648C78.1354 9.44 78.6047 10.6647 78.6047 12.322V16.392H79.5727ZM73.7647 14.852C73.1047 14.852 72.5914 14.94 72.2247 15.116C71.8727 15.292 71.6967 15.5853 71.6967 15.996C71.6967 16.2453 71.77 16.4507 71.9167 16.612C72.078 16.7587 72.298 16.832 72.5767 16.832C72.958 16.832 73.2514 16.6707 73.4567 16.348C73.662 16.0253 73.7647 15.5707 73.7647 14.984V14.852ZM81.1619 20.022V16.392H82.1299V6.492H81.1619V2.884H87.1899V16.392H88.1579V20.022H81.1619ZM102.559 16.392V20H96.7513V18.504C96.4286 18.9733 95.9739 19.3913 95.3873 19.758C94.8153 20.1247 94.1113 20.308 93.2753 20.308C92.1753 20.308 91.3099 20.0147 90.6793 19.428C90.0486 18.8413 89.7333 18.0127 89.7333 16.942C89.7333 14.17 92.0873 12.7473 96.7953 12.674C96.7513 12.1753 96.5606 11.838 96.2233 11.662C95.8859 11.4713 95.3139 11.376 94.5073 11.376C93.8473 11.376 93.1359 11.4493 92.3733 11.596C91.6253 11.728 90.9359 11.9113 90.3053 12.146V8.098C91.0826 7.90733 91.9259 7.75333 92.8353 7.636C93.7446 7.51867 94.6319 7.46 95.4973 7.46C97.6826 7.46 99.2446 7.856 100.183 8.648C101.122 9.44 101.591 10.6647 101.591 12.322V16.392H102.559ZM96.7513 14.852C96.0913 14.852 95.5779 14.94 95.2113 15.116C94.8593 15.292 94.6833 15.5853 94.6833 15.996C94.6833 16.2453 94.7566 16.4507 94.9033 16.612C95.0646 16.7587 95.2846 16.832 95.5633 16.832C95.9446 16.832 96.2379 16.6707 96.4433 16.348C96.6486 16.0253 96.7513 15.5707 96.7513 14.984V14.852ZM113.542 7.46C113.836 7.46 114.114 7.48933 114.378 7.548C114.642 7.60667 114.862 7.68 115.038 7.768V11.97C114.437 11.7207 113.792 11.596 113.102 11.596C112.178 11.596 111.467 11.838 110.968 12.322C110.47 12.806 110.22 13.5247 110.22 14.478V16.392H112.2V20H104.192V16.392H105.16V11.376H104.192V7.768H110.22V9.374C110.631 8.758 111.1 8.28867 111.628 7.966C112.156 7.62867 112.794 7.46 113.542 7.46Z" fill="#ffffff"/>
</g>
<g clip-path="url(#clip1_595_32)">
<path d="M61.195 30.1V36.31C61.195 37.58 60.86 38.54 60.19 39.19C59.52 39.83 58.56 40.15 57.31 40.15C56.07 40.15 55.11 39.83 54.43 39.19C53.76 38.54 53.425 37.58 53.425 36.31V30.1H54.625V36.01C54.625 37.04 54.84 37.8 55.27 38.29C55.71 38.78 56.39 39.025 57.31 39.025C58.23 39.025 58.905 38.78 59.335 38.29C59.775 37.8 59.995 37.04 59.995 36.01V30.1H61.195ZM63.6419 40V32.5H64.6919L64.7969 34.18L64.6019 34.015C64.7619 33.615 64.9769 33.295 65.2469 33.055C65.5169 32.805 65.8269 32.625 66.1769 32.515C66.5369 32.405 66.9069 32.35 67.2869 32.35C67.8269 32.35 68.3169 32.455 68.7569 32.665C69.1969 32.865 69.5469 33.175 69.8069 33.595C70.0769 34.015 70.2119 34.55 70.2119 35.2V40H69.0119V35.62C69.0119 34.79 68.8319 34.215 68.4719 33.895C68.1219 33.565 67.6869 33.4 67.1669 33.4C66.8069 33.4 66.4469 33.485 66.0869 33.655C65.7269 33.825 65.4269 34.1 65.1869 34.48C64.9569 34.86 64.8419 35.37 64.8419 36.01V40H63.6419ZM73.229 31.06C72.959 31.06 72.739 30.98 72.569 30.82C72.409 30.65 72.329 30.43 72.329 30.16C72.329 29.89 72.409 29.675 72.569 29.515C72.739 29.345 72.959 29.26 73.229 29.26C73.499 29.26 73.714 29.345 73.874 29.515C74.044 29.675 74.129 29.89 74.129 30.16C74.129 30.43 74.044 30.65 73.874 30.82C73.714 30.98 73.499 31.06 73.229 31.06ZM73.829 32.5V40H72.629V32.5H73.829ZM81.2784 32.5H82.5384L79.4184 40H78.2184L75.0984 32.5H76.4634L78.8334 38.785L81.2784 32.5ZM86.9413 40.15C86.2313 40.15 85.5963 39.995 85.0363 39.685C84.4863 39.375 84.0563 38.93 83.7463 38.35C83.4363 37.76 83.2813 37.06 83.2813 36.25C83.2813 35.44 83.4363 34.745 83.7463 34.165C84.0563 33.575 84.4813 33.125 85.0213 32.815C85.5613 32.505 86.1763 32.35 86.8663 32.35C87.5663 32.35 88.1613 32.5 88.6513 32.8C89.1513 33.1 89.5313 33.51 89.7913 34.03C90.0513 34.54 90.1813 35.115 90.1813 35.755C90.1813 35.925 90.1763 36.08 90.1663 36.22C90.1563 36.36 90.1413 36.485 90.1213 36.595H84.0613V35.53H89.5963L88.9813 35.65C88.9813 34.93 88.7813 34.375 88.3813 33.985C87.9913 33.595 87.4763 33.4 86.8363 33.4C86.3463 33.4 85.9213 33.515 85.5613 33.745C85.2113 33.965 84.9363 34.29 84.7363 34.72C84.5463 35.14 84.4513 35.65 84.4513 36.25C84.4513 36.84 84.5513 37.35 84.7513 37.78C84.9513 38.21 85.2313 38.54 85.5913 38.77C85.9613 38.99 86.4013 39.1 86.9113 39.1C87.4613 39.1 87.9063 38.995 88.2463 38.785C88.5963 38.575 88.8763 38.29 89.0863 37.93L90.0313 38.485C89.8413 38.825 89.5963 39.12 89.2963 39.37C89.0063 39.62 88.6613 39.815 88.2613 39.955C87.8713 40.085 87.4313 40.15 86.9413 40.15ZM92.1636 40V32.5H93.1386L93.3036 33.73C93.5136 33.27 93.8186 32.925 94.2186 32.695C94.6286 32.465 95.1236 32.35 95.7036 32.35C95.8336 32.35 95.9736 32.36 96.1236 32.38C96.2836 32.4 96.4186 32.44 96.5286 32.5L96.3186 33.595C96.2086 33.555 96.0886 33.525 95.9586 33.505C95.8286 33.485 95.6436 33.475 95.4036 33.475C95.0936 33.475 94.7786 33.565 94.4586 33.745C94.1486 33.925 93.8886 34.2 93.6786 34.57C93.4686 34.93 93.3636 35.39 93.3636 35.95V40H92.1636ZM100.364 40.15C99.6343 40.15 98.9593 39.995 98.3393 39.685C97.7293 39.375 97.2593 38.935 96.9293 38.365L97.9493 37.63C98.1693 38.09 98.4893 38.45 98.9093 38.71C99.3393 38.97 99.8543 39.1 100.454 39.1C100.984 39.1 101.399 39 101.699 38.8C101.999 38.59 102.149 38.32 102.149 37.99C102.149 37.78 102.079 37.59 101.939 37.42C101.809 37.24 101.554 37.11 101.174 37.03L99.3743 36.655C98.6443 36.505 98.1193 36.255 97.7993 35.905C97.4893 35.555 97.3343 35.12 97.3343 34.6C97.3343 34.19 97.4493 33.815 97.6793 33.475C97.9193 33.135 98.2543 32.865 98.6843 32.665C99.1243 32.455 99.6393 32.35 100.229 32.35C100.969 32.35 101.594 32.495 102.104 32.785C102.614 33.075 102.994 33.485 103.244 34.015L102.239 34.675C102.069 34.235 101.794 33.915 101.414 33.715C101.034 33.505 100.639 33.4 100.229 33.4C99.8693 33.4 99.5593 33.45 99.2993 33.55C99.0493 33.65 98.8543 33.79 98.7143 33.97C98.5843 34.14 98.5193 34.335 98.5193 34.555C98.5193 34.775 98.5943 34.98 98.7443 35.17C98.8943 35.35 99.1743 35.48 99.5843 35.56L101.459 35.95C102.159 36.09 102.649 36.32 102.929 36.64C103.209 36.96 103.349 37.35 103.349 37.81C103.349 38.28 103.224 38.695 102.974 39.055C102.724 39.405 102.374 39.675 101.924 39.865C101.474 40.055 100.954 40.15 100.364 40.15ZM105.874 31.06C105.604 31.06 105.384 30.98 105.214 30.82C105.054 30.65 104.974 30.43 104.974 30.16C104.974 29.89 105.054 29.675 105.214 29.515C105.384 29.345 105.604 29.26 105.874 29.26C106.144 29.26 106.359 29.345 106.519 29.515C106.689 29.675 106.774 29.89 106.774 30.16C106.774 30.43 106.689 30.65 106.519 30.82C106.359 30.98 106.144 31.06 105.874 31.06ZM106.474 32.5V40H105.274V32.5H106.474ZM110.729 30.37V37.93C110.729 38.3 110.834 38.575 111.044 38.755C111.254 38.935 111.524 39.025 111.854 39.025C112.144 39.025 112.394 38.975 112.604 38.875C112.814 38.775 113.004 38.64 113.174 38.47L113.594 39.475C113.364 39.685 113.089 39.85 112.769 39.97C112.459 40.09 112.099 40.15 111.689 40.15C111.309 40.15 110.954 40.085 110.624 39.955C110.294 39.815 110.029 39.6 109.829 39.31C109.639 39.01 109.539 38.62 109.529 38.14V30.7L110.729 30.37ZM113.459 32.5V33.535H108.029V32.5H113.459ZM121.108 32.5L117.583 41.26C117.393 41.75 117.183 42.135 116.953 42.415C116.733 42.705 116.483 42.91 116.203 43.03C115.933 43.16 115.618 43.225 115.258 43.225C114.918 43.225 114.603 43.175 114.313 43.075C114.033 42.985 113.783 42.86 113.563 42.7L113.893 41.65C114.093 41.83 114.303 41.96 114.523 42.04C114.753 42.13 114.978 42.175 115.198 42.175C115.458 42.175 115.703 42.095 115.933 41.935C116.163 41.775 116.373 41.45 116.563 40.96L116.953 39.985L116.203 38.2L113.818 32.5H115.183L117.058 37.39L117.523 38.725L118.063 37.24L119.818 32.5H121.108Z" fill="#ffffff"/>
</g>
<g clip-path="url(#clip2_595_32)">
<path d="M29.1674 24.5453C29.1674 24.7889 29.2466 25.0907 29.1453 25.3235C29.1453 25.3235 29.1453 25.3235 29.1361 25.3235C29.1459 25.3303 29.1534 25.3399 29.1575 25.351C29.1617 25.3621 29.1623 25.3742 29.1593 25.3856C29.1563 25.3971 29.1498 25.4074 29.1407 25.4151C29.1317 25.4228 29.1204 25.4277 29.1085 25.4289C28.9778 25.4435 28.8453 25.4489 28.7146 25.4526C28.7146 25.4526 28.7146 25.4635 28.7146 25.4689C28.7379 26.2289 28.7606 26.9895 28.7827 27.7507C28.8251 28.3899 28.814 29.0315 28.7496 29.6689C28.6115 30.6689 28.0979 31.4871 27.1462 31.9035C26.1945 32.3198 24.9686 32.3689 24.0169 31.8707C23.5992 31.657 23.2446 31.3401 22.9879 30.9507C22.7192 30.4886 22.5688 29.9687 22.5498 29.4362C22.4323 28.1154 22.4243 26.7873 22.5258 25.4653C22.3669 25.4989 22.2025 25.4989 22.0435 25.4653C22.0334 25.4627 22.0246 25.4563 22.0192 25.4475C22.0137 25.4387 22.0118 25.4281 22.0141 25.418C22.007 25.4133 22.001 25.4071 21.9965 25.3999C21.9921 25.3927 21.9893 25.3846 21.9883 25.3762C21.9681 24.8489 21.9533 24.3198 21.9349 23.7962C21.9349 23.7871 21.9372 23.7781 21.9415 23.77C21.9457 23.7619 21.952 23.755 21.9596 23.7498C21.9672 23.7446 21.9759 23.7413 21.9851 23.7402C21.9943 23.7391 22.0036 23.7402 22.0122 23.7435V23.7326C22.0075 23.7307 22.0034 23.7274 22.0005 23.7232C21.9976 23.719 21.996 23.714 21.996 23.7089C21.996 23.7038 21.9976 23.6989 22.0005 23.6946C22.0034 23.6904 22.0075 23.6872 22.0122 23.6853C22.2445 23.6326 22.4832 23.6136 22.7209 23.6289C22.986 23.6198 23.2548 23.6162 23.5235 23.6107C24.0574 23.5998 24.5912 23.5926 25.125 23.5889C25.1349 23.588 25.1448 23.5902 25.1533 23.595C25.1619 23.5999 25.1687 23.6073 25.1729 23.6162C25.1818 23.6123 25.1916 23.6106 25.2014 23.6113C25.2111 23.6121 25.2205 23.6152 25.2287 23.6204C25.2369 23.6257 25.2437 23.6328 25.2484 23.6413C25.2531 23.6498 25.2557 23.6593 25.2557 23.6689C25.2557 24.0562 25.2797 24.4489 25.2852 24.838C25.2852 25.0089 25.2852 25.1762 25.2852 25.3453C25.2845 25.3552 25.2808 25.3647 25.2746 25.3725C25.2683 25.3803 25.2598 25.386 25.2502 25.3889C25.2488 25.4026 25.2421 25.4152 25.2314 25.424C25.2207 25.4328 25.207 25.4372 25.1931 25.4362C25.029 25.4226 24.864 25.4226 24.6998 25.4362C24.7305 25.8895 24.7354 26.3442 24.7145 26.798C24.7145 27.2307 24.7145 27.6635 24.7053 28.0962C24.7053 28.7835 24.6851 30.0489 25.6828 30.0616C26.7173 30.0707 26.5608 28.7889 26.548 28.1053C26.5296 27.2235 26.5093 26.3416 26.4964 25.4562C26.34 25.4562 26.1835 25.4562 26.027 25.4562C26.0194 25.4563 26.0119 25.4546 26.0051 25.4512C25.9984 25.4479 25.9925 25.443 25.988 25.4369C25.9835 25.4309 25.9805 25.4239 25.9793 25.4165C25.9781 25.4091 25.9787 25.4015 25.981 25.3944C25.9673 25.3935 25.9545 25.3876 25.9449 25.3778C25.9354 25.3681 25.9299 25.3552 25.9295 25.3416C25.9203 25.1707 25.9129 25.0016 25.9092 24.8307C25.8982 24.4544 25.8982 24.0707 25.9092 23.698C25.9092 23.6908 25.9106 23.6838 25.9134 23.6771C25.9162 23.6705 25.9203 23.6645 25.9254 23.6594C25.9305 23.6544 25.9366 23.6504 25.9433 23.6476C25.95 23.6449 25.9572 23.6435 25.9644 23.6435L25.9792 23.6235C25.9712 23.6163 25.9656 23.607 25.963 23.5966C25.9603 23.5863 25.9608 23.5755 25.9643 23.5655C25.9679 23.5554 25.9743 23.5466 25.9828 23.5401C25.9913 23.5336 26.0016 23.5297 26.0123 23.5289C26.9953 23.438 27.9875 23.5471 28.9723 23.458C28.9862 23.4862 29.0064 23.5109 29.0312 23.5304C29.056 23.5499 29.085 23.5637 29.1159 23.5707C29.1545 23.898 29.1545 24.2235 29.1674 24.5453Z" fill="#ffffff"/>
<path d="M19.9616 38.1633C19.9413 38.4088 19.5456 38.5015 19.4959 38.2269C19.0301 35.6015 19.1792 32.756 19.0596 30.096C18.9381 27.3433 18.6914 24.556 18.7559 21.7979L19.2253 21.8088C19.5216 24.4688 19.5308 27.1779 19.656 29.8506C19.7793 32.5615 20.1954 35.4415 19.9634 38.1415C19.9634 38.1488 19.9616 38.156 19.9616 38.1633Z" fill="#ffffff"/>
<path d="M36.8012 4.45446C36.7988 4.41965 36.7894 4.38566 36.7736 4.35446C36.7766 4.30766 36.7656 4.26102 36.742 4.22031C36.7185 4.17959 36.6834 4.14659 36.641 4.12537C31.1444 1.27264 24.5286 0.0908203 18.3675 0.0908203C12.2928 0.0908203 5.48188 1.18173 0.119646 4.17264C0.0862368 4.19516 0.0588994 4.2254 0.0400079 4.26073C0.0211164 4.29606 0.011242 4.33541 0.011242 4.37537C0.011242 4.41532 0.0211164 4.45467 0.0400079 4.49C0.0588994 4.52533 0.0862368 4.55557 0.119646 4.57809C0.0844858 4.62565 0.0651851 4.68284 0.0644223 4.74173C-0.0239359 9.16961 -0.0239359 13.5969 0.0644223 18.0235C0.10492 20.1563 0.156462 22.289 0.248502 24.4181C0.320293 26.2108 0.552233 27.8235 1.55731 29.3635C5.20577 34.9326 11.4976 39.6654 17.7563 41.9654C17.8079 41.9827 17.864 41.9819 17.915 41.963C17.966 41.9441 18.0088 41.9083 18.0361 41.8617C21.6938 41.2672 25.0587 39.4272 27.9598 37.2072C30.6677 35.1345 33.5209 32.6017 35.347 29.7072C36.2674 28.2417 36.6263 26.669 36.7312 24.9617C36.8693 22.709 36.8895 20.4417 36.9282 18.1872C37.0092 13.6235 37.1123 8.99991 36.8012 4.45446ZM3.2987 5.69991C3.28032 5.72991 3.26841 5.76334 3.26373 5.79809C3.26589 5.76324 3.27529 5.7292 3.29134 5.69809L3.2987 5.69991ZM3.26925 5.88173C3.24781 5.87995 3.22626 5.87995 3.20482 5.88173C3.22386 5.88094 3.24293 5.88155 3.26188 5.88355L3.26925 5.88173ZM2.97104 5.96355C2.93985 5.99584 2.91711 6.03516 2.90477 6.07809C2.91523 6.03649 2.9354 5.99788 2.96368 5.96537L2.97104 5.96355ZM2.89188 19.6163C3.6098 19.6163 4.32955 19.6163 5.0493 19.5945C4.32218 19.6145 3.60243 19.6254 2.88452 19.6181L2.89188 19.6163ZM9.79855 19.4163C10.371 19.3963 10.9472 19.3835 11.5234 19.3726C10.9398 19.3854 10.3637 19.3981 9.79119 19.4181L9.79855 19.4163ZM16.9556 3.79809C16.6518 6.22355 16.869 8.80355 16.8304 11.2526C16.7917 13.7017 16.6868 16.1617 16.7163 18.6145H16.7052C14.4134 18.5417 12.0885 18.7417 9.79671 18.8217C7.56198 18.9017 5.31437 18.929 3.08149 19.0945C3.28213 14.7854 3.3981 10.4654 3.48646 6.15627C3.48685 6.12015 3.47997 6.0843 3.46621 6.05082C3.51542 6.05958 3.56614 6.05431 3.61244 6.03564C3.65873 6.01696 3.69868 5.98565 3.72761 5.94537C4.3682 5.09264 5.90895 4.97627 6.88641 4.77627C7.91848 4.56415 8.95792 4.38234 10.0047 4.23082C12.2394 3.91627 14.4852 3.95264 16.7163 3.70537C16.7869 3.70133 16.853 3.66997 16.9003 3.61809H17.0421C16.9901 3.66493 16.9574 3.72898 16.95 3.79809H16.9556ZM32.8103 27.3817C32.6152 28.3835 32.3446 29.3545 31.6562 30.149C31.0726 30.8235 30.3161 31.3781 29.6313 31.9417C28.0445 33.2308 26.4062 34.4617 24.7182 35.6181C24.0335 36.1027 23.3205 36.5471 22.5829 36.949C21.7987 37.3635 20.8746 37.5581 20.142 38.0508C20.1249 38.0612 20.1107 38.0756 20.1008 38.0927C20.0908 38.1099 20.0854 38.1292 20.0849 38.149H19.9671C19.9671 38.149 19.9671 38.1635 19.9671 38.1708C19.9469 38.4163 19.5511 38.509 19.5014 38.2345C19.0357 35.609 19.1848 32.7635 19.0651 30.1035C18.9436 27.3508 18.697 24.5635 18.7614 21.8054L19.2308 21.8163C21.6091 22.1126 24.0886 22.0217 26.4798 21.949C27.6285 21.9108 28.7808 21.8526 29.9277 21.7672C30.583 21.7199 31.2383 21.6672 31.8936 21.6054C32.2194 21.5745 32.5471 21.5417 32.8729 21.5072C32.8951 21.5091 32.9174 21.5061 32.9381 21.4982C32.9588 21.4903 32.9775 21.4778 32.9926 21.4617C33.0244 21.4963 33.0645 21.5223 33.1093 21.5372C33.1541 21.5522 33.202 21.5556 33.2484 21.5472C33.3077 23.5018 33.1608 25.4571 32.8103 27.3817Z" fill="#ffffff"/>
<path d="M7.21998 16V14.196H7.76998V9.246H7.21998V7.442H11.862V9.246H10.85V14.196H11.84V13.184H14.029V16H7.21998Z" fill="#ffffff"/>
</g>
<defs>
<clipPath id="clip0_595_32">
<rect width="66" height="20" fill="white" transform="translate(52 1)"/>
</clipPath>
<clipPath id="clip1_595_32">
<rect width="70" height="14" fill="white" transform="translate(52 29)"/>
</clipPath>
<clipPath id="clip2_595_32">
<rect width="37" height="42" fill="white"/>
</clipPath>
</defs>
</svg>
